<svg viewBox="0 0 154 32" fill="none" xmlns="http://www.w3.org/2000/svg">
<path d="M16.0075 17.0891C15.7544 18.0076 15.1921 18.7573 14.3393 19.329C13.477 19.9101 12.5305 20.1913 11.4995 20.1913C10.3655 20.1913 9.32521 19.8164 8.37863 19.076C7.43205 18.3356 6.72915 17.2109 6.27929 15.702C5.88566 14.3899 5.68885 12.9935 5.68885 11.5127C5.68885 9.75077 5.97001 8.20438 6.52296 6.8548C7.06654 5.54271 7.77882 4.73671 8.66916 4.42744C10.3468 3.80888 11.5745 4.38058 11.8932 4.53053C12.2587 4.69923 13.1771 5.30841 13.1865 6.47992C13.1865 7.14534 12.8397 7.5952 12.4742 7.86699C12.1556 8.10129 11.7151 8.22312 11.3777 8.20438C11.0309 8.18564 10.7685 8.00757 10.5811 7.67954C10.4499 7.97945 10.403 8.27936 10.4499 8.58863C10.4873 8.89791 10.5998 9.1697 10.7873 9.41338C11.0216 9.72265 11.3308 9.96633 11.7245 10.1257C12.1181 10.285 12.5679 10.3318 13.0553 10.2569C13.5426 10.1819 16.2324 9.82575 16.2324 6.52678C16.2324 5.82387 15.7919 4.53053 14.6298 3.92134C13.6364 3.39651 9.72821 2.0563 4.98594 5.36464C4.98594 5.36464 4.98594 5.36464 4.98594 5.38339C3.48641 6.33934 2.28678 7.61394 1.39644 9.23531C0.468603 10.9223 0 12.7967 0 14.8492C0 16.7236 0.402999 18.4387 1.19962 19.9757C1.99625 21.5221 3.10215 22.7311 4.50797 23.6214C5.91378 24.5118 7.49765 24.9523 9.25023 24.9523C10.8341 24.9523 12.1649 24.6336 13.2521 23.9869C14.3393 23.3403 15.1453 22.5436 15.6701 21.5877C16.1949 20.6317 16.4574 19.6945 16.4574 18.7761C16.4574 18.0732 16.298 17.5108 15.9887 17.0797L16.0075 17.0891Z" fill="white"/>
<path d="M114.545 21.3909C113.908 22.3843 113.318 22.9654 112.24 23.7058C111.162 24.4462 109.822 24.8211 108.229 24.8211C106.635 24.8211 105.108 24.5212 103.843 23.9307C102.568 23.3309 101.574 22.4687 100.862 21.3347C100.15 20.2006 99.7938 18.8604 99.7938 17.3234C99.7938 15.7864 100.169 14.568 100.918 13.4434C101.668 12.3187 102.68 11.4471 103.964 10.8379C105.248 10.2287 106.664 9.91947 108.219 9.91947C109.213 9.91947 110.169 10.1069 111.097 10.4912C112.015 10.8754 112.69 11.4096 113.093 12.1219C113.477 12.7873 113.674 13.434 113.674 14.0526C113.674 14.9148 113.852 18.345 109.316 18.6542C108.397 18.7198 107.432 18.6824 106.232 17.8951C109.082 17.8482 108.997 15.9363 108.997 15.4021C108.997 14.7742 108.875 14.09 108.622 13.3496C108.369 12.6093 108.051 11.9813 107.657 11.4565C107.263 10.941 106.87 10.6786 106.457 10.6786C106.382 10.6786 106.279 10.6974 106.167 10.7348C105.839 10.8286 105.567 11.2034 105.361 11.8501C105.155 12.4968 105.052 13.2559 105.052 14.1369C105.052 15.449 105.267 16.6486 105.689 17.7451C106.176 18.9729 106.842 19.9007 107.685 20.5287C108.529 21.1566 109.447 21.4659 110.44 21.4659C111.434 21.4659 112.305 21.1847 113.168 20.613C114.03 20.0507 114.723 19.2541 115.22 18.2419C115.37 18.7854 115.08 20.5099 114.508 21.4003L114.545 21.3909Z" fill="white"/>
<path d="M60.6935 24.418H61.4245V24.7086H53.0834V24.418H53.8144C54.1987 24.418 54.3955 24.1275 54.3955 23.5371V12.6842C54.3955 12.2718 54.2737 11.9813 54.0206 11.8032C53.7676 11.6252 53.4583 11.5502 53.0834 11.5689V11.3346C54.0956 11.3346 59.1659 10.2475 60 10.06L60.1125 10.21V23.5746C60.1125 24.1181 60.3093 24.4087 60.6935 24.4274V24.418ZM55.6514 8.78543C55.1453 8.26997 54.8922 7.65141 54.8922 6.92039C54.8922 6.18937 55.1453 5.58018 55.6514 5.05535C56.1574 4.53988 56.7666 4.27747 57.4883 4.27747C58.2099 4.27747 58.8285 4.53988 59.3439 5.05535C59.8594 5.57081 60.1218 6.18937 60.1218 6.92039C60.1218 7.65141 59.8594 8.2606 59.3439 8.78543C58.8285 9.3009 58.2099 9.56331 57.4883 9.56331C56.7666 9.56331 56.1574 9.3009 55.6514 8.78543Z" fill="white"/>
<path d="M41.3027 24.418H42.0337V24.7086H33.6926V24.418H34.4236C34.8079 24.418 35.0047 24.1275 35.0047 23.5371V4.62424C35.0047 3.8651 34.6767 3.48085 34.0112 3.48085L33.6926 3.50896V3.27466C37.0759 2.57176 38.0975 2.44992 40.6092 2.00006L40.7216 2.15001V23.5746C40.7216 24.1181 40.9185 24.4087 41.3027 24.4274V24.418Z" fill="white"/>
<path d="M28.8753 24.7086C28.1912 24.6898 27.6663 24.5492 27.2821 24.2868C26.9072 24.0244 26.6823 23.5089 26.626 22.7498C26.3917 23.1809 25.8763 23.612 25.0796 24.0525C24.283 24.493 23.4583 24.7367 22.596 24.8023C21.0403 24.896 19.7938 24.568 18.866 23.8089C17.9288 23.0497 17.4695 21.5502 17.4695 19.329V12.6936C17.4695 12.2812 17.3383 11.9907 17.0946 11.8126C16.851 11.6345 16.5323 11.5596 16.1574 11.5783V11.344C17.1696 11.344 21.4339 10.4068 23.0459 10.0694L23.1584 10.2194V20.3318C23.1584 21.5033 23.3083 22.3468 23.5989 22.8529C23.8894 23.359 24.2549 23.612 24.7048 23.612C25.1546 23.612 25.5483 23.434 25.9606 23.0872C26.373 22.7404 26.5885 22.3937 26.6354 22.0656V12.703C26.6354 12.2906 26.5136 12 26.2605 11.822C26.0075 11.6439 25.6982 11.5689 25.3233 11.5877V11.3534C26.3355 11.3534 30.731 10.4162 32.2118 10.0788L32.3336 10.2287V23.5933C32.3336 23.8463 32.3805 24.0525 32.4742 24.2118C32.5679 24.3712 32.7179 24.4462 32.9147 24.4462H33.6738V24.7367H28.8941L28.8753 24.7086Z" fill="white"/>
<path d="M90.3655 24.4181C89.9812 24.4181 89.7844 24.1369 89.7844 23.5652V16.7986C89.7844 14.0807 89.0159 12.2531 87.4789 11.3065C86.2137 10.5287 84.6298 10.0694 82.8678 9.91947C82.5211 9.88198 82.193 9.86324 81.865 9.86324C81.8088 9.86324 81.7619 9.86324 81.7057 9.86324C81.6401 9.86324 81.6026 9.86324 81.5557 9.86324C79.775 9.88198 78.4161 10.3225 77.6382 10.7348C76.4948 11.344 75.8669 12.3281 75.9044 13.3778C75.9887 15.6552 78.1912 15.7302 78.6691 15.7676C80.0375 15.852 80.806 15.1491 81.0309 14.8398C81.209 14.5961 81.3214 14.3243 81.3589 14.0244C81.3964 13.7245 81.3589 13.4246 81.2277 13.1341C81.0496 13.4621 80.7872 13.6308 80.4498 13.6496C80.1124 13.6683 79.6907 13.5465 79.372 13.3122C79.0065 13.0404 78.6129 12.5999 78.6691 11.9438C78.7535 10.9785 79.6532 10.6692 80.0375 10.5568C80.4779 10.4349 81.0871 10.3412 81.9119 10.3787C82.7554 10.4349 83.4583 10.7348 83.7488 11.1566C84.0581 11.5971 84.0393 12.5811 84.0393 13.6121C84.0393 14.0807 83.8988 14.5118 83.5239 14.8023C80.7685 16.8829 77.6944 16.18 74.9953 18.4762C74.4517 18.9354 74.0018 19.7508 73.9644 20.9504C73.9362 21.8501 74.0956 22.6186 74.5923 23.2466C75.089 23.8745 75.7638 24.3618 76.6166 24.6992C77.4695 25.0272 78.3786 25.1959 79.3252 25.1959C80.4123 25.1959 81.3964 24.9898 82.268 24.568C83.1396 24.1463 83.7394 23.5371 84.0487 22.7405C84.1049 23.4996 84.3205 24.0151 84.686 24.2775C85.0515 24.5399 85.5857 24.6805 86.2886 24.6992H91.0684V24.4087H90.3374L90.3655 24.4181ZM84.0393 21.2503C84.0206 21.9907 83.8331 22.5343 83.4864 22.8717C83.1396 23.2184 82.7179 23.3871 82.2305 23.3871C81.94 23.3871 81.6495 23.3403 81.3589 23.2372C81.0684 23.1435 80.8247 23.0123 80.6279 22.8529C80.3374 22.6186 80.1124 22.3187 79.9531 21.9626C79.7938 21.5971 79.7188 21.2128 79.7188 20.8004C79.7188 17.6046 82.8022 17.0704 84.0393 15.4302V21.2503Z" fill="white"/>
<path d="M73.4395 10.06V10.3506H74.0581C74.3299 10.3693 74.4704 10.5286 74.4704 10.8192C74.4704 10.9973 74.4517 11.1285 74.4142 11.2316L71.209 23.4808L67.9381 11.1753C67.9194 11.1003 67.91 10.9879 67.91 10.8567C67.91 10.5474 68.0506 10.3787 68.3224 10.36H68.9597V10.0694H60.7404V10.36H61.4714C61.8556 10.36 62.1274 10.6505 62.2586 11.2409C62.5867 12.553 63.0646 14.3618 63.6738 16.6767C64.283 18.9916 64.7891 20.866 65.1734 22.2906C65.4264 23.2465 65.7825 24.3618 65.9044 24.7273H72.7272V24.4368H72.2868C72.1274 24.4181 71.9868 24.3431 71.865 24.2212C71.7432 24.09 71.6776 23.8932 71.6776 23.6214C71.6776 23.5465 71.6963 23.3871 71.7338 23.1528L74.8828 11.1941C75.0421 10.6692 75.3046 10.3974 75.6701 10.3693H76.3636V10.0788H73.4583L73.4395 10.06Z" fill="white"/>
<path d="M52.5961 10.3506V10.06H48.6223C48.6223 6.83605 48.6223 4.34307 48.6223 4.34307L48.4442 4.19312C45.8388 6.1144 42.3243 8.56051 41.1246 9.1322V9.45085H41.7619C42.0337 9.45085 42.2961 9.52583 42.5304 9.68515C42.7741 9.84448 42.896 10.135 42.896 10.5661V20.0225C42.896 24.5774 47.029 24.6805 47.029 24.6805C47.1977 24.6992 47.432 24.6992 47.7694 24.6992C47.7882 24.6992 49.4377 24.6992 49.8782 24.6992H49.925C49.9531 24.6992 49.9906 24.6992 49.9906 24.6992C51.4152 24.6805 52.5773 23.4808 52.5773 22.0282H52.1837C52.1837 23.209 51.134 24.2681 49.9812 24.2775C49.9531 24.2775 49.2221 24.2775 48.6035 24.2775C48.6035 24.1931 48.6035 16.1894 48.6035 10.3412H52.5773L52.5961 10.3506Z" fill="white"/>
<path d="M100.59 10.3506V10.06H96.6167C96.6167 6.83605 96.6167 4.34307 96.6167 4.34307L96.4386 4.19312C93.8332 6.1144 90.3186 8.56051 89.119 9.1322V9.45085H89.7563C90.0281 9.45085 90.2905 9.52583 90.5248 9.68515C90.7685 9.84448 90.8903 10.135 90.8903 10.5661V20.0225C90.8903 24.5774 95.0234 24.6805 95.0234 24.6805C95.1921 24.6992 95.4264 24.6992 95.7638 24.6992C95.7826 24.6992 97.432 24.6992 97.8725 24.6992H97.9194C97.9475 24.6992 97.985 24.6992 97.985 24.6992C99.4096 24.6805 100.572 23.4808 100.572 22.0282H100.178C100.178 23.209 99.1284 24.2681 97.9756 24.2775C97.9475 24.2775 97.2165 24.2775 96.5979 24.2775C96.5979 24.1931 96.5979 16.1894 96.5979 10.3412H100.572L100.59 10.3506Z" fill="white"/>
<path d="M130.356 8.25121C129.475 8.00753 128.613 7.87633 127.779 7.87633C126.279 7.87633 124.958 8.16686 123.796 8.73856C122.634 9.31962 121.743 10.0975 121.125 11.0816C120.497 12.0656 120.187 13.1622 120.187 14.3524C120.187 15.5427 120.506 16.6205 121.143 17.567C121.781 18.5136 123.533 19.9194 124.986 20.4068C126.036 20.7535 127.141 20.866 128.247 20.866C129.766 20.866 131.125 20.613 132.324 20.1069C133.524 19.6008 134.461 18.8604 135.155 17.8857C135.839 16.911 136.186 15.7301 136.186 14.3524C136.186 13.0966 135.736 11.9625 134.845 10.941C133.955 9.91944 132.259 8.76667 130.375 8.24184L130.356 8.25121ZM130.337 19.1978C130 19.9663 129.531 20.3599 128.941 20.3599C128.247 20.3599 127.61 19.8163 127.038 18.7198C126.467 17.6326 126.054 16.2643 125.811 14.6148C125.708 13.7901 125.661 13.0872 125.661 12.5155C125.661 11.2784 125.82 10.2849 126.139 9.53518C126.457 8.78542 126.917 8.41053 127.507 8.41053C128.247 8.41053 128.903 8.95411 129.475 10.0319C130.047 11.1097 130.459 12.4874 130.703 14.1556C130.806 14.9429 130.853 15.6177 130.853 16.1894C130.853 17.4265 130.684 18.4293 130.347 19.1978H130.337Z" fill="#A0A39B"/>
<path d="M134.499 6.63923C134.499 8.01692 132.999 8.44804 132.202 8.63548C133.533 8.70109 134.527 8.63548 135.314 8.3262C136.917 7.6889 137.479 6.25498 137.432 5.13033C137.329 2.70296 135.098 2.54364 134.583 2.52489C131.425 2.44992 131.387 4.92414 131.734 5.38337C132.118 4.72733 134.499 4.55863 134.499 6.62986V6.63923Z" fill="#A0A39B"/>
<path d="M152.559 13.5183C151.79 12.3468 150.75 11.4096 149.447 10.7161C148.21 10.06 146.888 9.72264 145.473 9.68515V9.67578C145.455 9.67578 145.445 9.67578 145.426 9.68515C145.37 9.68515 145.314 9.67578 145.258 9.67578C143.608 9.67578 142.137 10.0132 140.853 10.6973C139.569 11.3815 138.575 12.3093 137.863 13.4808C137.151 14.6523 136.795 15.9457 136.795 17.3515C136.795 18.7573 137.132 20.0975 137.798 21.2597C138.472 22.4218 139.447 23.3496 140.731 24.0244C142.015 24.7086 143.524 25.046 145.248 25.046C146.973 25.046 148.454 24.6992 149.738 24.0244C151.022 23.3403 152.006 22.4124 152.68 21.2409C153.365 20.0694 153.702 18.7667 153.702 17.3421C153.702 15.9176 153.318 14.6711 152.549 13.4996L152.559 13.5183ZM147.263 23.1153C146.973 23.9869 146.57 24.418 146.064 24.418C145.651 24.418 145.248 24.1181 144.836 23.5277C144.424 22.9279 144.049 22.1125 143.711 21.0816C143.374 20.0507 143.121 18.9073 142.971 17.6514C142.896 17.0422 142.849 16.4612 142.821 15.8988C143.486 16.0675 144.077 15.9738 144.274 15.9457C144.705 15.8801 145.061 15.7395 145.351 15.5052C145.642 15.2709 145.848 14.9897 145.961 14.6711C146.054 14.418 146.073 14.1556 146.036 13.8932C145.998 13.6308 145.876 13.3871 145.698 13.1622C145.623 13.4902 145.445 13.6964 145.164 13.7995C144.883 13.9026 144.489 13.912 144.161 13.7995C143.786 13.6683 143.374 13.3777 143.215 12.8154C142.933 11.822 143.533 11.0722 143.805 10.8567C144.021 10.688 144.395 10.5099 144.798 10.3974C145.089 10.5286 145.38 10.7911 145.67 11.2128C146.092 11.822 146.467 12.6374 146.795 13.6776C147.123 14.7179 147.366 15.852 147.526 17.1078C147.638 18.0075 147.704 18.8791 147.704 19.7133C147.704 21.1191 147.554 22.2625 147.263 23.1247V23.1153Z" fill="#A0A39B"/>
<path d="M134.93 26.4237C134.77 24.418 132.858 22.9091 129.7 22.9091H125.839C124.602 22.9091 123.261 22.4687 124.18 20.5193C122.034 21.3534 121.143 22.4312 121.143 24.0432C121.143 25.6552 122.746 26.7142 124.377 26.7142H130C132.971 26.7142 133.505 27.4171 133.505 28.2887C133.505 29.1603 132.999 29.4696 131.106 29.4696H125.22C124.152 29.4696 122.802 28.598 123.664 27.0329C121.649 27.6983 120.815 28.5699 120.815 29.8538C120.815 31.1378 122.315 32 123.843 32H128.885C131.977 32 133.599 30.8098 134.227 29.7601C134.855 28.7105 135.005 27.3702 134.93 26.433V26.4237Z" fill="#A0A39B"/>
</svg>
