<svg viewBox="0 0 154 32" fill="none" xmlns="http://www.w3.org/2000/svg">
<path d="M16.0075 17.089C15.7544 18.0075 15.1921 18.7573 14.3393 19.329C13.477 19.91 12.5305 20.1912 11.4995 20.1912C10.3655 20.1912 9.32521 19.8163 8.37863 19.0759C7.43205 18.3355 6.72915 17.2109 6.27929 15.702C5.88566 14.3899 5.68885 12.9934 5.68885 11.5127C5.68885 9.75071 5.97001 8.20432 6.52296 6.85474C7.06654 5.54265 7.77882 4.73665 8.66916 4.42737C10.3468 3.80882 11.5745 4.38051 11.8932 4.53047C12.2587 4.69916 13.1771 5.30835 13.1865 6.47986C13.1865 7.14527 12.8397 7.59513 12.4742 7.86692C12.1556 8.10123 11.7151 8.22306 11.3777 8.20432C11.0309 8.18557 10.7685 8.0075 10.5811 7.67948C10.4499 7.97939 10.403 8.27929 10.4499 8.58857C10.4873 8.89785 10.5998 9.16964 10.7873 9.41332C11.0216 9.72259 11.3308 9.96627 11.7245 10.1256C12.1181 10.2849 12.5679 10.3318 13.0553 10.2568C13.5426 10.1818 16.2324 9.82569 16.2324 6.52672C16.2324 5.82381 15.7919 4.53047 14.6298 3.92128C13.6364 3.39645 9.72821 2.05624 4.98594 5.36458C4.98594 5.36458 4.98594 5.36458 4.98594 5.38333C3.48641 6.33928 2.28678 7.61388 1.39644 9.23525C0.468603 10.9222 0 12.7966 0 14.8491C0 16.7235 0.402999 18.4386 1.19962 19.9756C1.99625 21.522 3.10215 22.731 4.50797 23.6214C5.91378 24.5117 7.49765 24.9522 9.25023 24.9522C10.8341 24.9522 12.1649 24.6336 13.2521 23.9869C14.3393 23.3402 15.1453 22.5436 15.6701 21.5876C16.1949 20.6317 16.4574 19.6945 16.4574 18.776C16.4574 18.0731 16.298 17.5108 15.9887 17.0797L16.0075 17.089Z" fill="black"/>
<path d="M114.545 21.3908C113.908 22.3843 113.318 22.9653 112.24 23.7057C111.162 24.4461 109.822 24.821 108.229 24.821C106.635 24.821 105.108 24.5211 103.843 23.9307C102.568 23.3308 101.574 22.4686 100.862 21.3346C100.15 20.2006 99.7938 18.8604 99.7938 17.3233C99.7938 15.7863 100.169 14.568 100.918 13.4433C101.668 12.3187 102.68 11.4471 103.964 10.8379C105.248 10.2287 106.664 9.91941 108.219 9.91941C109.213 9.91941 110.169 10.1069 111.097 10.4911C112.015 10.8754 112.69 11.4096 113.093 12.1218C113.477 12.7873 113.674 13.4339 113.674 14.0525C113.674 14.9147 113.852 18.3449 109.316 18.6542C108.397 18.7198 107.432 18.6823 106.232 17.895C109.082 17.8482 108.997 15.9363 108.997 15.4021C108.997 14.7741 108.875 14.09 108.622 13.3496C108.369 12.6092 108.051 11.9813 107.657 11.4564C107.263 10.941 106.87 10.6785 106.457 10.6785C106.382 10.6785 106.279 10.6973 106.167 10.7348C105.839 10.8285 105.567 11.2034 105.361 11.8501C105.155 12.4967 105.052 13.2559 105.052 14.1368C105.052 15.4489 105.267 16.6486 105.689 17.7451C106.176 18.9728 106.842 19.9007 107.685 20.5286C108.529 21.1565 109.447 21.4658 110.44 21.4658C111.434 21.4658 112.305 21.1846 113.168 20.6129C114.03 20.0506 114.723 19.254 115.22 18.2418C115.37 18.7854 115.08 20.5098 114.508 21.4002L114.545 21.3908Z" fill="black"/>
<path d="M60.6935 24.418H61.4245V24.7085H53.0834V24.418H53.8144C54.1987 24.418 54.3955 24.1274 54.3955 23.537V12.6842C54.3955 12.2718 54.2737 11.9812 54.0206 11.8032C53.7676 11.6251 53.4583 11.5501 53.0834 11.5689V11.3346C54.0956 11.3346 59.1659 10.2474 60 10.06L60.1125 10.2099V23.5745C60.1125 24.1181 60.3093 24.4086 60.6935 24.4274V24.418ZM55.6514 8.78537C55.1453 8.26991 54.8922 7.65135 54.8922 6.92033C54.8922 6.18931 55.1453 5.58012 55.6514 5.05529C56.1574 4.53982 56.7666 4.27741 57.4883 4.27741C58.2099 4.27741 58.8285 4.53982 59.3439 5.05529C59.8594 5.57075 60.1218 6.18931 60.1218 6.92033C60.1218 7.65135 59.8594 8.26053 59.3439 8.78537C58.8285 9.30083 58.2099 9.56325 57.4883 9.56325C56.7666 9.56325 56.1574 9.30083 55.6514 8.78537Z" fill="black"/>
<path d="M41.3027 24.418H42.0337V24.7085H33.6926V24.418H34.4236C34.8079 24.418 35.0047 24.1275 35.0047 23.537V4.62418C35.0047 3.86504 34.6767 3.48079 34.0112 3.48079L33.6926 3.5089V3.2746C37.0759 2.5717 38.0975 2.44986 40.6092 2L40.7216 2.14995V23.5745C40.7216 24.1181 40.9185 24.4086 41.3027 24.4274V24.418Z" fill="black"/>
<path d="M28.8753 24.7085C28.1912 24.6898 27.6663 24.5492 27.2821 24.2868C26.9072 24.0243 26.6823 23.5089 26.626 22.7497C26.3917 23.1809 25.8763 23.612 25.0796 24.0525C24.283 24.493 23.4583 24.7366 22.596 24.8022C21.0403 24.896 19.7938 24.5679 18.866 23.8088C17.9288 23.0497 17.4695 21.5501 17.4695 19.3289V12.6935C17.4695 12.2811 17.3383 11.9906 17.0946 11.8125C16.851 11.6345 16.5323 11.5595 16.1574 11.5782V11.3439C17.1696 11.3439 21.4339 10.4067 23.0459 10.0693L23.1584 10.2193V20.3318C23.1584 21.5033 23.3083 22.3467 23.5989 22.8528C23.8894 23.3589 24.2549 23.612 24.7048 23.612C25.1546 23.612 25.5483 23.4339 25.9606 23.0871C26.373 22.7404 26.5885 22.3936 26.6354 22.0656V12.7029C26.6354 12.2905 26.5136 12 26.2605 11.8219C26.0075 11.6438 25.6982 11.5689 25.3233 11.5876V11.3533C26.3355 11.3533 30.731 10.4161 32.2118 10.0787L32.3336 10.2287V23.5932C32.3336 23.8463 32.3805 24.0525 32.4742 24.2118C32.5679 24.3711 32.7179 24.4461 32.9147 24.4461H33.6738V24.7366H28.8941L28.8753 24.7085Z" fill="black"/>
<path d="M90.3655 24.418C89.9812 24.418 89.7844 24.1368 89.7844 23.5651V16.7985C89.7844 14.0806 89.0159 12.2531 87.4789 11.3065C86.2137 10.5286 84.6298 10.0694 82.8678 9.91941C82.5211 9.88192 82.193 9.86318 81.865 9.86318C81.8088 9.86318 81.7619 9.86318 81.7057 9.86318C81.6401 9.86318 81.6026 9.86318 81.5557 9.86318C79.775 9.88192 78.4161 10.3224 77.6382 10.7348C76.4948 11.344 75.8669 12.328 75.9044 13.3777C75.9887 15.6551 78.1912 15.7301 78.6691 15.7676C80.0375 15.8519 80.806 15.149 81.0309 14.8397C81.209 14.5961 81.3214 14.3243 81.3589 14.0244C81.3964 13.7245 81.3589 13.4246 81.2277 13.134C81.0496 13.4621 80.7872 13.6308 80.4498 13.6495C80.1124 13.6682 79.6907 13.5464 79.372 13.3121C79.0065 13.0403 78.6129 12.5998 78.6691 11.9438C78.7535 10.9785 79.6532 10.6692 80.0375 10.5567C80.4779 10.4349 81.0871 10.3412 81.9119 10.3786C82.7554 10.4349 83.4583 10.7348 83.7488 11.1565C84.0581 11.597 84.0393 12.5811 84.0393 13.612C84.0393 14.0806 83.8988 14.5117 83.5239 14.8023C80.7685 16.8829 77.6944 16.18 74.9953 18.4761C74.4517 18.9353 74.0018 19.7507 73.9644 20.9503C73.9362 21.8501 74.0956 22.6186 74.5923 23.2465C75.089 23.8744 75.7638 24.3618 76.6166 24.6992C77.4695 25.0272 78.3786 25.1959 79.3252 25.1959C80.4123 25.1959 81.3964 24.9897 82.268 24.568C83.1396 24.1462 83.7394 23.537 84.0487 22.7404C84.1049 23.4995 84.3205 24.015 84.686 24.2774C85.0515 24.5398 85.5857 24.6804 86.2886 24.6992H91.0684V24.4086H90.3374L90.3655 24.418ZM84.0393 21.2502C84.0206 21.9906 83.8331 22.5342 83.4864 22.8716C83.1396 23.2184 82.7179 23.3871 82.2305 23.3871C81.94 23.3871 81.6495 23.3402 81.3589 23.2371C81.0684 23.1434 80.8247 23.0122 80.6279 22.8529C80.3374 22.6186 80.1124 22.3187 79.9531 21.9625C79.7938 21.597 79.7188 21.2128 79.7188 20.8004C79.7188 17.6045 82.8022 17.0703 84.0393 15.4302V21.2502Z" fill="black"/>
<path d="M73.4395 10.06V10.3505H74.0581C74.3299 10.3693 74.4704 10.5286 74.4704 10.8191C74.4704 10.9972 74.4517 11.1284 74.4142 11.2315L71.209 23.4808L67.9381 11.1753C67.9194 11.1003 67.91 10.9878 67.91 10.8566C67.91 10.5473 68.0506 10.3786 68.3224 10.3599H68.9597V10.0694H60.7404V10.3599H61.4714C61.8556 10.3599 62.1274 10.6504 62.2586 11.2409C62.5867 12.553 63.0646 14.3618 63.6738 16.6767C64.283 18.9916 64.7891 20.866 65.1734 22.2905C65.4264 23.2465 65.7825 24.3618 65.9044 24.7273H72.7272V24.4367H72.2868C72.1274 24.418 71.9868 24.343 71.865 24.2212C71.7432 24.09 71.6776 23.8932 71.6776 23.6214C71.6776 23.5464 71.6963 23.3871 71.7338 23.1528L74.8828 11.194C75.0421 10.6692 75.3046 10.3974 75.6701 10.3693H76.3636V10.0787H73.4583L73.4395 10.06Z" fill="black"/>
<path d="M52.5961 10.3505V10.06H48.6223C48.6223 6.83598 48.6223 4.34301 48.6223 4.34301L48.4442 4.19306C45.8388 6.11433 42.3243 8.56044 41.1246 9.13214V9.45079H41.7619C42.0337 9.45079 42.2961 9.52577 42.5304 9.68509C42.7741 9.84442 42.896 10.135 42.896 10.5661V20.0225C42.896 24.5773 47.029 24.6804 47.029 24.6804C47.1977 24.6991 47.432 24.6991 47.7694 24.6991C47.7882 24.6991 49.4377 24.6991 49.8782 24.6991H49.925C49.9531 24.6991 49.9906 24.6991 49.9906 24.6991C51.4152 24.6804 52.5773 23.4808 52.5773 22.0281H52.1837C52.1837 23.209 51.134 24.268 49.9812 24.2774C49.9531 24.2774 49.2221 24.2774 48.6035 24.2774C48.6035 24.1931 48.6035 16.1893 48.6035 10.3411H52.5773L52.5961 10.3505Z" fill="black"/>
<path d="M100.59 10.3505V10.06H96.6167C96.6167 6.83598 96.6167 4.34301 96.6167 4.34301L96.4386 4.19306C93.8332 6.11433 90.3186 8.56044 89.119 9.13214V9.45079H89.7563C90.0281 9.45079 90.2905 9.52577 90.5248 9.68509C90.7685 9.84442 90.8903 10.135 90.8903 10.5661V20.0225C90.8903 24.5773 95.0234 24.6804 95.0234 24.6804C95.1921 24.6991 95.4264 24.6991 95.7638 24.6991C95.7826 24.6991 97.432 24.6991 97.8725 24.6991H97.9194C97.9475 24.6991 97.985 24.6991 97.985 24.6991C99.4096 24.6804 100.572 23.4808 100.572 22.0281H100.178C100.178 23.209 99.1284 24.268 97.9756 24.2774C97.9475 24.2774 97.2165 24.2774 96.5979 24.2774C96.5979 24.1931 96.5979 16.1893 96.5979 10.3411H100.572L100.59 10.3505Z" fill="black"/>
<path d="M130.356 8.25116C129.475 8.00749 128.613 7.87628 127.779 7.87628C126.279 7.87628 124.958 8.16681 123.796 8.73851C122.634 9.31958 121.743 10.0975 121.125 11.0815C120.497 12.0656 120.187 13.1621 120.187 14.3524C120.187 15.5426 120.506 16.6204 121.143 17.567C121.781 18.5136 123.533 19.9194 124.986 20.4067C126.036 20.7535 127.141 20.866 128.247 20.866C129.766 20.866 131.125 20.6129 132.324 20.1068C133.524 19.6007 134.461 18.8603 135.155 17.8856C135.839 16.911 136.186 15.7301 136.186 14.3524C136.186 13.0965 135.736 11.9625 134.845 10.9409C133.955 9.91939 132.259 8.76663 130.375 8.24179L130.356 8.25116ZM130.337 19.1977C130 19.9662 129.531 20.3599 128.941 20.3599C128.247 20.3599 127.61 19.8163 127.038 18.7198C126.467 17.6326 126.054 16.2643 125.811 14.6148C125.708 13.7901 125.661 13.0872 125.661 12.5155C125.661 11.2783 125.82 10.2849 126.139 9.53514C126.457 8.78537 126.917 8.41049 127.507 8.41049C128.247 8.41049 128.903 8.95407 129.475 10.0319C130.047 11.1096 130.459 12.4873 130.703 14.1556C130.806 14.9428 130.853 15.6176 130.853 16.1893C130.853 17.4264 130.684 18.4292 130.347 19.1977H130.337Z" fill="#A0A39B"/>
<path d="M134.499 6.63918C134.499 8.01688 132.999 8.44799 132.202 8.63544C133.533 8.70104 134.527 8.63544 135.314 8.32616C136.917 7.68886 137.479 6.25493 137.432 5.13028C137.329 2.70292 135.098 2.54359 134.583 2.52485C131.425 2.44987 131.387 4.9241 131.734 5.38333C132.118 4.72728 134.499 4.55859 134.499 6.62981V6.63918Z" fill="#A0A39B"/>
<path d="M152.559 13.5183C151.79 12.3468 150.75 11.4096 149.447 10.716C148.21 10.06 146.888 9.72259 145.473 9.6851V9.67573C145.455 9.67573 145.445 9.67573 145.426 9.6851C145.37 9.6851 145.314 9.67573 145.258 9.67573C143.608 9.67573 142.137 10.0131 140.853 10.6973C139.569 11.3814 138.575 12.3093 137.863 13.4808C137.151 14.6523 136.795 15.9456 136.795 17.3515C136.795 18.7573 137.132 20.0975 137.798 21.2596C138.472 22.4217 139.447 23.3496 140.731 24.0244C142.015 24.7085 143.524 25.0459 145.248 25.0459C146.973 25.0459 148.454 24.6992 149.738 24.0244C151.022 23.3402 152.006 22.4124 152.68 21.2409C153.365 20.0694 153.702 18.7666 153.702 17.3421C153.702 15.9175 153.318 14.671 152.549 13.4995L152.559 13.5183ZM147.263 23.1153C146.973 23.9869 146.57 24.418 146.064 24.418C145.651 24.418 145.248 24.1181 144.836 23.5276C144.424 22.9278 144.049 22.1125 143.711 21.0815C143.374 20.0506 143.121 18.9072 142.971 17.6514C142.896 17.0422 142.849 16.4611 142.821 15.8988C143.486 16.0675 144.077 15.9738 144.274 15.9456C144.705 15.88 145.061 15.7395 145.351 15.5052C145.642 15.2709 145.848 14.9897 145.961 14.671C146.054 14.418 146.073 14.1556 146.036 13.8932C145.998 13.6307 145.876 13.3871 145.698 13.1621C145.623 13.4902 145.445 13.6963 145.164 13.7994C144.883 13.9025 144.489 13.9119 144.161 13.7994C143.786 13.6682 143.374 13.3777 143.215 12.8154C142.933 11.8219 143.533 11.0722 143.805 10.8566C144.021 10.6879 144.395 10.5098 144.798 10.3974C145.089 10.5286 145.38 10.791 145.67 11.2127C146.092 11.8219 146.467 12.6373 146.795 13.6776C147.123 14.7179 147.366 15.8519 147.526 17.1078C147.638 18.0075 147.704 18.8791 147.704 19.7132C147.704 21.119 147.554 22.2624 147.263 23.1246V23.1153Z" fill="#A0A39B"/>
<path d="M134.93 26.4236C134.77 24.418 132.858 22.9091 129.7 22.9091H125.839C124.602 22.9091 123.261 22.4686 124.18 20.5192C122.034 21.3533 121.143 22.4311 121.143 24.0431C121.143 25.6551 122.746 26.7142 124.377 26.7142H130C132.971 26.7142 133.505 27.4171 133.505 28.2887C133.505 29.1603 132.999 29.4695 131.106 29.4695H125.22C124.152 29.4695 122.802 28.5979 123.664 27.0328C121.649 27.6982 120.815 28.5698 120.815 29.8538C120.815 31.1378 122.315 32 123.843 32H128.885C131.977 32 133.599 30.8098 134.227 29.7601C134.855 28.7104 135.005 27.3702 134.93 26.433V26.4236Z" fill="#A0A39B"/>
</svg>
